<svg width="14" height="23" viewBox="0 0 14 23" fill="none" xmlns="http://www.w3.org/2000/svg">
<g clip-path="url(#clip0_11_5)">
<path d="M3.06122 0.938744L13.0612 10.9387C13.2011 11.0781 13.312 11.2437 13.3877 11.426C13.4634 11.6083 13.5024 11.8038 13.5024 12.0012C13.5024 12.1987 13.4634 12.3941 13.3877 12.5765C13.312 12.7588 13.2011 12.9244 13.0612 13.0637L3.06122 23.0637C2.77943 23.3455 2.39724 23.5038 1.99872 23.5038C1.60021 23.5038 1.21802 23.3455 0.936225 23.0637C0.654432 22.782 0.496123 22.3998 0.496123 22.0012C0.496123 21.6027 0.654432 21.2205 0.936225 20.9387L9.87498 12L0.934976 3.06124C0.653183 2.77945 0.494873 2.39726 0.494873 1.99874C0.494873 1.60023 0.653183 1.21804 0.934976 0.936245C1.21677 0.654453 1.59896 0.49614 1.99748 0.49614C2.39599 0.49614 2.77818 0.654453 3.05998 0.936245L3.06122 0.938744Z" fill="white"/>
</g>
<defs>
<clipPath id="clip0_11_5">
<rect width="23" height="14" fill="white" transform="matrix(0 -1 1 0 0 23)"/>
</clipPath>
</defs>
</svg>
