<svg width="22" height="31" viewBox="0 0 22 31" fill="none" xmlns="http://www.w3.org/2000/svg">
<path d="M11 15.5C12.4504 15.5 13.8682 15.0699 15.0742 14.2641C16.2801 13.4583 17.2201 12.313 17.7751 10.973C18.3302 9.63302 18.4754 8.15853 18.1924 6.736C17.9095 5.31348 17.211 4.0068 16.1854 2.98122C15.1599 1.95563 13.8532 1.2572 12.4307 0.974239C11.0081 0.691281 9.53365 0.836506 8.19366 1.39155C6.85366 1.94659 5.70835 2.88652 4.90256 4.09248C4.09676 5.29844 3.66667 6.71627 3.66667 8.16667C3.66861 10.111 4.44185 11.9751 5.81669 13.35C7.19154 14.7248 9.05567 15.4981 11 15.5ZM11 3.27778C11.9669 3.27778 12.9121 3.5645 13.7161 4.1017C14.5201 4.6389 15.1467 5.40244 15.5167 6.29577C15.8868 7.1891 15.9836 8.17209 15.795 9.12044C15.6063 10.0688 15.1407 10.9399 14.457 11.6236C13.7732 12.3074 12.9021 12.773 11.9538 12.9616C11.0054 13.1503 10.0224 13.0534 9.1291 12.6834C8.23577 12.3134 7.47224 11.6868 6.93504 10.8828C6.39784 10.0788 6.11111 9.1336 6.11111 8.16667C6.11111 6.87005 6.62619 5.62654 7.54303 4.7097C8.45988 3.79285 9.70339 3.27778 11 3.27778ZM11 17.9444C8.08361 17.9477 5.2876 19.1076 3.2254 21.1698C1.1632 23.232 0.00323504 26.0281 0 28.9444C0 29.2686 0.128769 29.5795 0.357981 29.8087C0.587192 30.0379 0.898069 30.1667 1.22222 30.1667C1.54638 30.1667 1.85725 30.0379 2.08646 29.8087C2.31567 29.5795 2.44444 29.2686 2.44444 28.9444C2.44444 26.6754 3.34583 24.4992 4.95031 22.8948C6.55479 21.2903 8.73093 20.3889 11 20.3889C13.2691 20.3889 15.4452 21.2903 17.0497 22.8948C18.6542 24.4992 19.5556 26.6754 19.5556 28.9444C19.5556 29.2686 19.6843 29.5795 19.9135 29.8087C20.1427 30.0379 20.4536 30.1667 20.7778 30.1667C21.1019 30.1667 21.4128 30.0379 21.642 29.8087C21.8712 29.5795 22 29.2686 22 28.9444C21.9968 26.0281 20.8368 23.232 18.7746 21.1698C16.7124 19.1076 13.9164 17.9477 11 17.9444Z" fill="white"/>
</svg>
