<svg width="22" height="23" viewBox="0 0 22 23" fill="none" xmlns="http://www.w3.org/2000/svg">
<path d="M8.47911 7.83339H1.60411C0.719555 7.83339 0 7.11384 0 6.22911V2.10411C0 1.21955 0.719555 0.5 1.60411 0.5H8.47911C9.36384 0.5 10.0834 1.21955 10.0834 2.10411V6.22911C10.0834 7.11384 9.36384 7.83339 8.47911 7.83339ZM1.60411 1.875C1.54336 1.87505 1.48511 1.8992 1.44215 1.94215C1.3992 1.98511 1.37505 2.04336 1.375 2.10411V6.22911C1.37501 6.28989 1.39915 6.34817 1.44211 6.39116C1.48507 6.43415 1.54333 6.45833 1.60411 6.45839H8.47911C8.53991 6.45837 8.59822 6.4342 8.64121 6.39121C8.6842 6.34822 8.70837 6.28991 8.70839 6.22911V2.10411C8.70833 2.04333 8.68415 1.98507 8.64116 1.94211C8.59817 1.89915 8.53989 1.87501 8.47911 1.875H1.60411ZM8.47911 22.5H1.60411C0.719555 22.5 0 21.7804 0 20.8959V11.2709C0 10.3862 0.719555 9.66661 1.60411 9.66661H8.47911C9.36384 9.66661 10.0834 10.3862 10.0834 11.2709V20.8959C10.0834 21.7804 9.36384 22.5 8.47911 22.5ZM1.60411 11.0416C1.54333 11.0417 1.48507 11.0658 1.44211 11.1088C1.39915 11.1518 1.37501 11.2101 1.375 11.2709V20.8959C1.37505 20.9566 1.3992 21.0149 1.44215 21.0578C1.48511 21.1008 1.54336 21.125 1.60411 21.125H8.47911C8.53989 21.125 8.59817 21.1009 8.64116 21.0579C8.68415 21.0149 8.70833 20.9567 8.70839 20.8959V11.2709C8.70837 11.2101 8.6842 11.1518 8.64121 11.1088C8.59822 11.0658 8.53991 11.0416 8.47911 11.0416H1.60411ZM20.3959 22.5H13.5209C12.6362 22.5 11.9166 21.7804 11.9166 20.8959V16.7709C11.9166 15.8862 12.6362 15.1666 13.5209 15.1666H20.3959C21.2804 15.1666 22 15.8862 22 16.7709V20.8959C22 21.7804 21.2804 22.5 20.3959 22.5ZM13.5209 16.5416C13.4601 16.5416 13.4018 16.5658 13.3588 16.6088C13.3158 16.6518 13.2916 16.7101 13.2916 16.7709V20.8959C13.2917 20.9567 13.3158 21.0149 13.3588 21.0579C13.4018 21.1009 13.4601 21.125 13.5209 21.125H20.3959C20.4566 21.125 20.5149 21.1008 20.5578 21.0578C20.6008 21.0149 20.625 20.9566 20.625 20.8959V16.7709C20.625 16.7101 20.6009 16.6518 20.5579 16.6088C20.5149 16.5658 20.4567 16.5417 20.3959 16.5416H13.5209ZM20.3959 13.3334H13.5209C12.6362 13.3334 11.9166 12.6138 11.9166 11.7291V2.10411C11.9166 1.21955 12.6362 0.5 13.5209 0.5H20.3959C21.2804 0.5 22 1.21955 22 2.10411V11.7291C22 12.6138 21.2804 13.3334 20.3959 13.3334ZM13.5209 1.875C13.4601 1.87501 13.4018 1.89915 13.3588 1.94211C13.3158 1.98507 13.2917 2.04333 13.2916 2.10411V11.7291C13.2916 11.7899 13.3158 11.8482 13.3588 11.8912C13.4018 11.9342 13.4601 11.9584 13.5209 11.9584H20.3959C20.4567 11.9583 20.5149 11.9342 20.5579 11.8912C20.6009 11.8482 20.625 11.7899 20.625 11.7291V2.10411C20.625 2.04336 20.6008 1.98511 20.5578 1.94215C20.5149 1.8992 20.4566 1.87505 20.3959 1.875H13.5209Z" fill="white"/>
</svg>
