<svg width="22" height="21" viewBox="0 0 22 21" fill="none" xmlns="http://www.w3.org/2000/svg">
<path d="M17.4167 4.08333H15.5128C15.3598 3.21774 14.9608 2.41448 14.3636 1.76949C13.7664 1.1245 12.9962 0.665047 12.1449 0.445997C11.9096 0.385462 11.6598 0.420892 11.4506 0.544494C11.2414 0.668096 11.0899 0.869745 11.0293 1.10508C10.9688 1.34042 11.0042 1.59016 11.1278 1.79937C11.2514 2.00859 11.4531 2.16013 11.6884 2.22066C12.2788 2.37316 12.8018 2.71762 13.175 3.19986C13.5482 3.68209 13.7505 4.27472 13.75 4.8845V15.0833H3.66667C2.65558 15.0833 1.83333 14.2611 1.83333 13.25V9.58333H4.125C4.36812 9.58333 4.60127 9.48675 4.77318 9.31485C4.94509 9.14294 5.04167 8.90978 5.04167 8.66667C5.04167 8.42355 4.94509 8.19039 4.77318 8.01848C4.60127 7.84658 4.36812 7.75 4.125 7.75H1.83333C0.82225 7.75 0 8.57225 0 9.58333V13.25C0.00108011 14.0715 0.277544 14.869 0.785203 15.5149C1.29286 16.1608 2.0024 16.6179 2.80042 16.8131C2.71897 17.2746 2.73949 17.7483 2.86054 18.201C2.9816 18.6538 3.20025 19.0745 3.50117 19.4338C3.80208 19.793 4.17796 20.0821 4.60244 20.2807C5.02691 20.4793 5.4897 20.5826 5.95833 20.5833C6.41812 20.5826 6.87238 20.4831 7.29042 20.2917C7.70846 20.1003 8.08052 19.8213 8.38147 19.4737C8.68241 19.1261 8.90522 18.7179 9.03483 18.2768C9.16444 17.8356 9.19783 17.3718 9.13275 16.9167H12.8673C12.8022 17.3718 12.8356 17.8356 12.9652 18.2768C13.0948 18.7179 13.3176 19.1261 13.6185 19.4737C13.9195 19.8213 14.2915 20.1003 14.7096 20.2917C15.1276 20.4831 15.5819 20.5826 16.0417 20.5833C16.5103 20.5826 16.9731 20.4793 17.3976 20.2807C17.822 20.0821 18.1979 19.793 18.4988 19.4338C18.7997 19.0745 19.0184 18.6538 19.1395 18.201C19.2605 17.7483 19.281 17.2746 19.1996 16.8131C19.9976 16.6179 20.7071 16.1608 21.2148 15.5149C21.7225 14.869 21.9989 14.0715 22 13.25V8.66667C22 6.13941 19.9439 4.08333 17.4167 4.08333ZM20.1667 8.66667V9.58333H15.5833V5.91666H17.4167C18.9328 5.91666 20.1667 7.1505 20.1667 8.66667ZM7.33333 17.375C7.33333 18.1331 6.71642 18.75 5.95833 18.75C5.20025 18.75 4.58333 18.1331 4.58333 17.375C4.58333 17.2017 4.61725 17.0487 4.66675 16.9167H7.25083C7.30033 17.0487 7.33425 17.2017 7.33425 17.375H7.33333ZM16.0417 18.75C15.2836 18.75 14.6667 18.1331 14.6667 17.375C14.6667 17.2017 14.7006 17.0487 14.7501 16.9167H17.3342C17.3837 17.0487 17.4176 17.2017 17.4176 17.375C17.4176 18.1331 16.7998 18.75 16.0417 18.75ZM18.3333 15.0833H15.5833V11.4167H20.1667V13.25C20.1667 14.2611 19.3444 15.0833 18.3333 15.0833ZM0 1.33333C0 1.09022 0.0965771 0.857058 0.268485 0.68515C0.440394 0.513241 0.673552 0.416664 0.916667 0.416664H8.39117C8.63428 0.416664 8.86744 0.513241 9.03935 0.68515C9.21126 0.857058 9.30783 1.09022 9.30783 1.33333C9.30783 1.57645 9.21126 1.8096 9.03935 1.98151C8.86744 2.15342 8.63428 2.25 8.39117 2.25H0.916667C0.673552 2.25 0.440394 2.15342 0.268485 1.98151C0.0965771 1.8096 0 1.57645 0 1.33333ZM0 5C0 4.75688 0.0965771 4.52373 0.268485 4.35182C0.440394 4.17991 0.673552 4.08333 0.916667 4.08333H6.55783C6.80095 4.08333 7.03411 4.17991 7.20601 4.35182C7.37792 4.52373 7.4745 4.75688 7.4745 5C7.4745 5.24311 7.37792 5.47627 7.20601 5.64818C7.03411 5.82009 6.80095 5.91666 6.55783 5.91666H0.916667C0.673552 5.91666 0.440394 5.82009 0.268485 5.64818C0.0965771 5.47627 0 5.24311 0 5Z" fill="white"/>
</svg>
