<svg width="22" height="31" viewBox="0 0 22 31" fill="none" xmlns="http://www.w3.org/2000/svg">
<path d="M11 15.4994C15.0443 15.4994 18.3333 12.2104 18.3333 8.16605C18.3333 4.12172 15.0443 0.832718 11 0.832718C6.95567 0.832718 3.66667 4.12172 3.66667 8.16605C3.66667 12.2104 6.95567 15.4994 11 15.4994ZM11 3.27716C13.6962 3.27716 15.8889 5.46983 15.8889 8.16605C15.8889 10.8623 13.6962 13.0549 11 13.0549C8.30378 13.0549 6.11111 10.8623 6.11111 8.16605C6.11111 5.46983 8.30378 3.27716 11 3.27716ZM22 28.9438C22 29.268 21.8712 29.5789 21.642 29.8081C21.4128 30.0373 21.1019 30.1661 20.7778 30.1661C20.4536 30.1661 20.1427 30.0373 19.9135 29.8081C19.6843 29.5789 19.5556 29.268 19.5556 28.9438C19.5556 25.2539 17.2028 22.1116 13.9223 20.9138L12.0682 23.6956L13.4041 28.5723C13.6278 29.3863 12.9091 30.1673 11.9362 30.1673H10.0638C9.09089 30.1673 8.37344 29.3863 8.59589 28.5723L9.93178 23.6956L8.07767 20.9138C4.79722 22.1116 2.44444 25.2539 2.44444 28.9451C2.44444 29.2692 2.31567 29.5801 2.08646 29.8093C1.85725 30.0385 1.54638 30.1673 1.22222 30.1673C0.898069 30.1673 0.587192 30.0385 0.357981 29.8093C0.128769 29.5801 0 29.2692 0 28.9451C0 22.8804 4.93533 17.9451 11 17.9451C17.0647 17.9451 22 22.8792 22 28.9438Z" fill="white"/>
</svg>
