<svg width="22" height="23" viewBox="0 0 22 23" fill="none" xmlns="http://www.w3.org/2000/svg">
<path d="M11 18.8333C16.0545 18.8333 20.1667 14.7212 20.1667 9.66667C20.1667 4.61217 16.0545 0.5 11 0.5C5.9455 0.5 1.83333 4.61217 1.83333 9.66667C1.83333 14.7212 5.9455 18.8333 11 18.8333ZM11 2.33333C15.0434 2.33333 18.3333 5.62325 18.3333 9.66667C18.3333 13.7101 15.0434 17 11 17C6.95658 17 3.66667 13.7101 3.66667 9.66667C3.66667 5.62325 6.95658 2.33333 11 2.33333ZM22 19.2917C22 21.0608 20.5608 22.5 18.7917 22.5H3.20833C1.43917 22.5 0 21.0608 0 19.2917C0 18.2888 0.4785 17.3309 1.27967 16.7277C1.47421 16.5885 1.71549 16.5308 1.95197 16.5671C2.18845 16.6033 2.4014 16.7305 2.54535 16.9216C2.6893 17.1127 2.75283 17.3525 2.72239 17.5898C2.69195 17.8271 2.56994 18.0431 2.38242 18.1917C2.15299 18.3656 1.98384 18.607 1.89876 18.882C1.81368 19.1571 1.81695 19.4518 1.90811 19.7249C1.99927 19.998 2.17373 20.2356 2.40696 20.4044C2.64019 20.5731 2.92045 20.6645 3.20833 20.6658H18.7917C19.0797 20.6646 19.3601 20.5732 19.5935 20.4043C19.8268 20.2354 20.0013 19.9976 20.0924 19.7243C20.1835 19.4511 20.1866 19.1561 20.1012 18.881C20.0159 18.6059 19.8464 18.3645 19.6167 18.1908C19.4225 18.0444 19.2945 17.8269 19.2607 17.5862C19.2269 17.3454 19.2902 17.1011 19.4365 16.907C19.5829 16.7128 19.8004 16.5848 20.0411 16.551C20.2819 16.5172 20.5262 16.5805 20.7203 16.7268C21.119 17.0248 21.4424 17.412 21.6646 17.8574C21.8868 18.3027 22.0016 18.7939 22 19.2917ZM12.8333 11.5C12.8336 11.3326 12.7744 11.1706 12.6663 11.0428C12.5582 10.915 12.4081 10.8298 12.243 10.8024L9.45542 10.3386C8.8618 10.241 8.32229 9.9354 7.93347 9.47637C7.54465 9.01734 7.33191 8.4349 7.33333 7.83333C7.33333 6.31717 8.56717 5.08333 10.0833 5.08333V4.16667C10.0833 3.92355 10.1799 3.69039 10.3518 3.51849C10.5237 3.34658 10.7569 3.25 11 3.25C11.2431 3.25 11.4763 3.34658 11.6482 3.51849C11.8201 3.69039 11.9167 3.92355 11.9167 4.16667V5.08333H12.1623C12.6448 5.08418 13.1186 5.2115 13.5364 5.45261C13.9543 5.69371 14.3017 6.04017 14.5438 6.45742C14.6656 6.66783 14.6989 6.91802 14.6362 7.15293C14.5735 7.38784 14.4201 7.58824 14.2097 7.71004C13.9993 7.83184 13.7491 7.86507 13.5142 7.80241C13.2793 7.73975 13.0789 7.58633 12.9571 7.37592C12.8765 7.23645 12.7606 7.12062 12.6211 7.04002C12.4816 6.95942 12.3234 6.91688 12.1623 6.91667H10.0833C9.57825 6.91667 9.16667 7.32733 9.16667 7.83333C9.16637 8.00073 9.22557 8.16278 9.3337 8.29056C9.44184 8.41834 9.59186 8.50352 9.757 8.53092L12.5446 8.99475C13.1382 9.09229 13.6777 9.39793 14.0665 9.85696C14.4554 10.316 14.6681 10.8984 14.6667 11.5C14.6667 13.0162 13.4328 14.25 11.9167 14.25V15.1667C11.9167 15.4098 11.8201 15.6429 11.6482 15.8148C11.4763 15.9868 11.2431 16.0833 11 16.0833C10.7569 16.0833 10.5237 15.9868 10.3518 15.8148C10.1799 15.6429 10.0833 15.4098 10.0833 15.1667V14.25H9.83767C9.35523 14.2492 8.88144 14.1218 8.46357 13.8807C8.0457 13.6396 7.69835 13.2932 7.45617 12.8759C7.33437 12.6655 7.30114 12.4153 7.3638 12.1804C7.42646 11.9455 7.57988 11.7451 7.79029 11.6233C8.00071 11.5015 8.25089 11.4683 8.4858 11.5309C8.72072 11.5936 8.92112 11.747 9.04292 11.9574C9.207 12.2416 9.51133 12.4167 9.83767 12.4167H11.9167C12.4218 12.4167 12.8333 12.006 12.8333 11.5Z" fill="white"/>
</svg>
