<svg width="22" height="23" viewBox="0 0 22 23" fill="none" xmlns="http://www.w3.org/2000/svg">
<path d="M21.0998 8.55292C20.8329 8.30701 20.5195 8.11693 20.1781 7.99383C19.8366 7.87074 19.474 7.8171 19.1116 7.83608C18.7493 7.85176 18.3937 7.93933 18.0656 8.09371C17.7375 8.2481 17.4434 8.4662 17.2003 8.73533L14.2514 11.9748C13.9952 11.5502 13.6336 11.1989 13.2018 10.955C12.77 10.7111 12.2825 10.5827 11.7865 10.5824H8.25092V9.66575H8.59558C9.23329 9.66502 9.84468 9.41137 10.2956 8.96044C10.7465 8.50951 11.0002 7.89813 11.0009 7.26042C11.0023 6.69063 10.8008 6.13897 10.4324 5.70426C10.0641 5.26955 9.55296 4.98021 8.99067 4.88808L5.97942 4.38575C5.83922 4.36043 5.71349 4.28379 5.62675 4.17078C5.54001 4.05777 5.49849 3.9165 5.51028 3.77453C5.52207 3.63255 5.58634 3.50007 5.69053 3.40292C5.79473 3.30577 5.93138 3.25092 6.07383 3.24908H8.25183C8.75783 3.24908 9.1685 3.66067 9.1685 4.16575H11.0018C11.0018 2.64958 9.768 1.41575 8.25183 1.41575V0.5H6.4185V1.41667H6.07383C5.43612 1.41739 4.82474 1.67105 4.37381 2.12198C3.92288 2.57291 3.66923 3.18429 3.6685 3.822C3.6685 5.00267 4.51458 6.00092 5.67875 6.19433L8.69 6.69667C8.83019 6.72198 8.95593 6.79862 9.04267 6.91163C9.12941 7.02464 9.17093 7.16592 9.15914 7.30789C9.14735 7.44986 9.08308 7.58235 8.97889 7.6795C8.87469 7.77665 8.73803 7.83149 8.59558 7.83333H6.41758C5.91158 7.83333 5.50092 7.42175 5.50092 6.91667H3.66758C3.66758 8.43283 4.90142 9.66667 6.41758 9.66667V10.5833H2.75C1.23383 10.5833 0 11.8172 0 13.3333V19.75C0 21.2662 1.23383 22.5 2.75 22.5H12.3273L21.2988 12.4304C21.7805 11.887 22.0296 11.1761 21.9922 10.4508C21.9548 9.7255 21.6349 9.04393 21.0998 8.55292ZM19.9311 11.2103L11.5069 20.6667H2.75C2.244 20.6667 1.83333 20.2551 1.83333 19.75V13.3333C1.83333 12.8283 2.244 12.4167 2.75 12.4167H11.7856C12.3631 12.4167 12.8333 12.886 12.8333 13.4635C12.8319 13.7151 12.7406 13.9579 12.5759 14.148C12.4111 14.3381 12.1838 14.4631 11.935 14.5002L7.20408 15.1758L7.4635 16.9899L12.1944 16.3143C12.7135 16.2379 13.202 16.022 13.6079 15.6895C14.0137 15.3571 14.3217 14.9207 14.4989 14.4269L18.557 9.96825C18.7229 9.78492 18.9512 9.67858 19.1978 9.66667C19.4462 9.66025 19.6818 9.74183 19.8651 9.90683C20.2382 10.2478 20.2684 10.8327 19.9311 11.2103ZM16.5248 5.098H12.8343V3.26467H16.5541L15.1452 1.85483L16.4413 0.558667L18.6853 2.80358C19.0493 3.16658 19.25 3.65058 19.25 4.16575C19.25 4.68092 19.0493 5.16492 18.6853 5.52883L16.4028 7.81133L15.1067 6.51517L16.5248 5.098Z" fill="white"/>
</svg>
