<svg width="22" height="23" viewBox="0 0 22 23" fill="none" xmlns="http://www.w3.org/2000/svg">
<path d="M21.194 17.8057L14.154 10.7648L12.8606 12.0463L8.26807 7.45383V3.63683L2.86798 0.522917L0.0400649 3.34992L3.1549 8.75H6.9719L11.558 13.3361L10.2462 14.635L17.3046 21.6943C17.8243 22.2131 18.5146 22.5 19.2497 22.5C19.9849 22.5 20.6751 22.214 21.194 21.6943C21.7091 21.1783 21.9984 20.4791 21.9984 19.75C21.9984 19.0209 21.7091 18.3217 21.194 17.8057ZM6.43473 6.91667H4.21457L2.33173 3.65242L3.17048 2.81275L6.43565 4.6965L6.43473 6.91667ZM19.8978 20.3981C19.7235 20.5654 19.4913 20.6588 19.2497 20.6588C19.0082 20.6588 18.7759 20.5654 18.6016 20.3981L12.845 14.6423L14.1476 13.3526L19.8969 19.1019C20.0687 19.2738 20.1653 19.5069 20.1653 19.75C20.1653 19.9931 20.0687 20.2262 19.8969 20.3981H19.8978ZM10.0831 6.79108V2.67617C10.7237 1.98986 11.4985 1.44255 12.3595 1.0682C13.2205 0.693852 14.1492 0.500449 15.0881 0.5C16.1706 0.5 17.2129 0.749333 18.1873 1.24342L19.3157 1.81542L14.8983 6.23192C14.7251 6.40517 14.6297 6.63525 14.6297 6.88C14.6297 7.12475 14.7251 7.35483 14.8974 7.52717C15.0721 7.69409 15.3043 7.78724 15.5459 7.78724C15.7875 7.78724 16.0198 7.69409 16.1945 7.52717L20.6156 3.10608L21.1912 4.21892C21.6995 5.19285 21.964 6.2755 21.9621 7.37408C21.9617 8.48434 21.6919 9.57792 21.1761 10.5611C20.6603 11.5442 19.9137 12.3876 19.0004 13.0189L17.674 11.6925C18.5791 11.1514 19.2916 10.3399 19.7113 9.37251C20.131 8.40507 20.2366 7.33037 20.0133 6.29975L17.4906 8.82242C16.9744 9.33735 16.2751 9.62652 15.5459 9.62652C14.8168 9.62652 14.1174 9.33735 13.6012 8.82242C13.0824 8.3045 12.7955 7.61333 12.7955 6.87817C12.7955 6.143 13.0815 5.45275 13.6012 4.93392L16.101 2.43417C15.4168 2.29508 14.7112 2.29946 14.0289 2.447C13.3465 2.59455 12.7021 2.88207 12.1365 3.29138C11.5709 3.70069 11.0964 4.22289 10.743 4.82496C10.3895 5.42704 10.1648 6.09589 10.0831 6.78925V6.79108ZM8.40648 15.3885L9.70265 16.6847L4.69307 21.6943C4.17423 22.2131 3.48307 22.5 2.74882 22.5C2.01456 22.5 1.3234 22.214 0.803648 21.6943C0.288999 21.1781 0 20.4789 0 19.75C0 19.0211 0.288999 18.3219 0.803648 17.8057L7.11857 11.4908L8.41473 12.787L2.09981 19.1019C1.92797 19.2738 1.83143 19.5069 1.83143 19.75C1.83143 19.9931 1.92797 20.2262 2.09981 20.3981C2.2741 20.5654 2.50632 20.6588 2.7479 20.6588C2.98947 20.6588 3.22169 20.5654 3.39598 20.3981L8.40648 15.3885Z" fill="white"/>
</svg>
