<svg width="22" height="23" viewBox="0 0 22 23" fill="none" xmlns="http://www.w3.org/2000/svg">
<path d="M19.1583 3.97509C18.8355 3.09163 18.2492 2.32857 17.4787 1.78906C16.7082 1.24954 15.7906 0.959575 14.85 0.958344H7.15C6.20939 0.959575 5.29183 1.24954 4.52133 1.78906C3.75083 2.32857 3.16453 3.09163 2.84167 3.97509L0.366671 10.7832C0.12325 11.4537 -0.000847671 12.1617 4.35771e-06 12.875V13.7917C0.00163999 14.5001 0.168151 15.1984 0.486355 15.8313C0.80456 16.4642 1.26572 17.0143 1.83334 17.4382V19.2917C1.83334 20.021 2.12307 20.7205 2.63879 21.2362C3.15452 21.7519 3.85399 22.0417 4.58334 22.0417C5.31268 22.0417 6.01215 21.7519 6.52788 21.2362C7.0436 20.7205 7.33333 20.021 7.33333 19.2917V18.375H14.6667V19.2917C14.6667 20.021 14.9564 20.7205 15.4721 21.2362C15.9878 21.7519 16.6873 22.0417 17.4167 22.0417C18.146 22.0417 18.8455 21.7519 19.3612 21.2362C19.8769 20.7205 20.1667 20.021 20.1667 19.2917V17.4382C20.7343 17.0143 21.1954 16.4642 21.5136 15.8313C21.8318 15.1984 21.9984 14.5001 22 13.7917V12.875C22.0009 12.162 21.8768 11.4543 21.6333 10.7841L19.1583 3.97509ZM4.56684 4.60209C4.76065 4.07241 5.11219 3.61489 5.57408 3.29117C6.03596 2.96746 6.58598 2.79313 7.15 2.79168H14.85C15.4143 2.79276 15.9648 2.96691 16.427 3.29065C16.8893 3.61439 17.2411 4.07212 17.435 4.60209L19.4407 10.125H2.55842L4.56684 4.60209ZM5.5 19.2917C5.5 19.5348 5.40343 19.7679 5.23152 19.9398C5.05961 20.1118 4.82645 20.2083 4.58334 20.2083C4.34022 20.2083 4.10706 20.1118 3.93516 19.9398C3.76325 19.7679 3.66667 19.5348 3.66667 19.2917V18.2833C3.96837 18.3446 4.27548 18.3753 4.58334 18.375H5.5V19.2917ZM18.3333 19.2917C18.3333 19.5348 18.2368 19.7679 18.0648 19.9398C17.8929 20.1118 17.6598 20.2083 17.4167 20.2083C17.1735 20.2083 16.9404 20.1118 16.7685 19.9398C16.5966 19.7679 16.5 19.5348 16.5 19.2917V18.375H17.4167C17.7245 18.3753 18.0316 18.3446 18.3333 18.2833V19.2917ZM20.1667 13.7917C20.1667 14.521 19.8769 15.2205 19.3612 15.7362C18.8455 16.2519 18.146 16.5417 17.4167 16.5417H4.58334C3.85399 16.5417 3.15452 16.2519 2.63879 15.7362C2.12307 15.2205 1.83334 14.521 1.83334 13.7917V12.875C1.83707 12.5663 1.87426 12.259 1.94425 11.9583H3.66667V12.875C3.66667 13.1181 3.76325 13.3513 3.93516 13.5232C4.10706 13.6951 4.34022 13.7917 4.58334 13.7917C4.82645 13.7917 5.05961 13.6951 5.23152 13.5232C5.40343 13.3513 5.5 13.1181 5.5 12.875V11.9583H16.5V12.875C16.5 13.1181 16.5966 13.3513 16.7685 13.5232C16.9404 13.6951 17.1735 13.7917 17.4167 13.7917C17.6598 13.7917 17.8929 13.6951 18.0648 13.5232C18.2368 13.3513 18.3333 13.1181 18.3333 12.875V11.9583H20.0557C20.1258 12.259 20.163 12.5663 20.1667 12.875V13.7917Z" fill="white"/>
</svg>
