<svg width="25" height="25" viewBox="0 0 25 25" fill="none" xmlns="http://www.w3.org/2000/svg">
<path d="M11.8333 18.5H13.1667V13.1667H18.5V11.8333H13.1667V6.5H11.8333V11.8333H6.5V13.1667H11.8333V18.5ZM12.504 24.5C10.8453 24.5 9.28533 24.1853 7.824 23.556C6.36356 22.9258 5.09289 22.0707 4.012 20.9907C2.93111 19.9107 2.07556 18.6413 1.44533 17.1827C0.815111 15.724 0.5 14.1644 0.5 12.504C0.5 10.8436 0.814667 9.28356 1.444 7.824C2.07333 6.36444 2.92844 5.09378 4.00933 4.012C5.09022 2.93022 6.35956 2.07467 7.81733 1.44533C9.27511 0.816 10.8347 0.500888 12.496 0.499999C14.1573 0.499111 15.7173 0.813777 17.176 1.444C18.6347 2.07422 19.9053 2.92933 20.988 4.00933C22.0707 5.08933 22.9262 6.35867 23.5547 7.81733C24.1831 9.276 24.4982 10.8356 24.5 12.496C24.5018 14.1564 24.1871 15.7164 23.556 17.176C22.9249 18.6356 22.0698 19.9062 20.9907 20.988C19.9116 22.0698 18.6422 22.9253 17.1827 23.5547C15.7231 24.184 14.1636 24.4991 12.504 24.5ZM12.5 23.1667C15.4778 23.1667 18 22.1333 20.0667 20.0667C22.1333 18 23.1667 15.4778 23.1667 12.5C23.1667 9.52222 22.1333 7 20.0667 4.93333C18 2.86667 15.4778 1.83333 12.5 1.83333C9.52222 1.83333 7 2.86667 4.93333 4.93333C2.86667 7 1.83333 9.52222 1.83333 12.5C1.83333 15.4778 2.86667 18 4.93333 20.0667C7 22.1333 9.52222 23.1667 12.5 23.1667Z" fill="#191919"/>
</svg>
