<svg width="26" height="26" viewBox="0 0 26 26" fill="none" xmlns="http://www.w3.org/2000/svg">
<path d="M17.4763 7.14937H20.73C20.9268 7.14956 21.1165 7.2228 21.2624 7.35488C21.4083 7.48697 21.5 7.6685 21.5196 7.86431L22.0042 12.71H20.4059L20.0087 8.73812H17.4763V11.1212C17.4763 11.3319 17.3926 11.534 17.2436 11.683C17.0946 11.8319 16.8926 11.9156 16.6819 11.9156C16.4712 11.9156 16.2692 11.8319 16.1202 11.683C15.9712 11.534 15.8875 11.3319 15.8875 11.1212V8.73812H9.53253V11.1212C9.53253 11.3319 9.44884 11.534 9.29986 11.683C9.15089 11.8319 8.94883 11.9156 8.73815 11.9156C8.52747 11.9156 8.32542 11.8319 8.17645 11.683C8.02747 11.534 7.94378 11.3319 7.94378 11.1212V8.73812H5.40972L4.13872 21.4481H12.71V23.0369H3.26014C3.14919 23.0368 3.03949 23.0134 2.93811 22.9683C2.83674 22.9232 2.74593 22.8574 2.67154 22.7751C2.59715 22.6928 2.54083 22.5958 2.50621 22.4904C2.47159 22.385 2.45944 22.2735 2.47053 22.1631L3.90041 7.86431C3.92009 7.6685 4.01175 7.48697 4.15763 7.35488C4.30351 7.2228 4.49323 7.14956 4.69002 7.14937H7.94378V6.5949C7.94378 3.84 10.0663 1.58875 12.71 1.58875C15.3537 1.58875 17.4763 3.84 17.4763 6.5949V7.15096V7.14937ZM15.8875 7.14937V6.5949C15.8875 4.69793 14.4545 3.1775 12.71 3.1775C10.9656 3.1775 9.53253 4.69793 9.53253 6.5949V7.15096H15.8875V7.14937ZM20.8873 19.1603L19.065 17.3396V23.0369C19.065 23.2476 18.9813 23.4496 18.8324 23.5986C18.6834 23.7476 18.4813 23.8312 18.2707 23.8312C18.06 23.8312 17.8579 23.7476 17.7089 23.5986C17.56 23.4496 17.4763 23.2476 17.4763 23.0369V17.3396L15.6556 19.1603C15.5823 19.2362 15.4946 19.2967 15.3977 19.3383C15.3008 19.38 15.1966 19.4019 15.0911 19.4028C14.9856 19.4037 14.881 19.3836 14.7834 19.3437C14.6858 19.3037 14.5971 19.2448 14.5225 19.1702C14.4479 19.0956 14.3889 19.0069 14.349 18.9093C14.309 18.8116 14.2889 18.707 14.2898 18.6016C14.2908 18.4961 14.3127 18.3918 14.3543 18.2949C14.3959 18.198 14.4565 18.1104 14.5323 18.0371L17.7098 14.8596C17.8588 14.7107 18.0608 14.627 18.2714 14.627C18.4821 14.627 18.6841 14.7107 18.8331 14.8596L22.0106 18.0371C22.0864 18.1104 22.147 18.198 22.1886 18.2949C22.2302 18.3918 22.2521 18.4961 22.2531 18.6016C22.254 18.707 22.2339 18.8116 22.1939 18.9093C22.154 19.0069 22.095 19.0956 22.0204 19.1702C21.9458 19.2448 21.8571 19.3037 21.7595 19.3437C21.6619 19.3836 21.5573 19.4037 21.4518 19.4028C21.3463 19.4019 21.2421 19.38 21.1452 19.3383C21.0483 19.2967 20.9606 19.2362 20.8873 19.1603Z" fill="black"/>
</svg>
