<svg width="32" height="23" viewBox="0 0 32 23" fill="none" xmlns="http://www.w3.org/2000/svg">
<path d="M21.3333 11.3333C21.3333 10.4493 21.6845 9.60143 22.3096 8.97631C22.9348 8.35119 23.7826 8 24.6667 8C25.5507 8 26.3986 8.35119 27.0237 8.97631C27.6488 9.60143 28 10.4493 28 11.3333C28 12.2174 27.6488 13.0652 27.0237 13.6904C26.3986 14.3155 25.5507 14.6667 24.6667 14.6667C23.7826 14.6667 22.9348 14.3155 22.3096 13.6904C21.6845 13.0652 21.3333 12.2174 21.3333 11.3333ZM17.3333 0V22.6667H32V0H17.3333ZM29.3333 17.3333C27.8667 17.3333 26.6667 18.5333 26.6667 20H22.6667C22.6667 19.2928 22.3857 18.6145 21.8856 18.1144C21.3855 17.6143 20.7072 17.3333 20 17.3333V5.33333C21.48 5.33333 22.6667 4.14667 22.6667 2.66667H26.6667C26.6667 3.37391 26.9476 4.05219 27.4477 4.55229C27.9478 5.05238 28.6261 5.33333 29.3333 5.33333V17.3333ZM9.33333 4C10.8 4 12 5.2 12 6.66667C12 8.13333 10.8 9.33333 9.33333 9.33333C7.86667 9.33333 6.66667 8.13333 6.66667 6.66667C6.66667 5.2 7.86667 4 9.33333 4ZM9.33333 1.33333C6.38667 1.33333 4 3.72 4 6.66667C4 9.61333 6.38667 12 9.33333 12C12.28 12 14.6667 9.61333 14.6667 6.66667C14.6667 3.72 12.28 1.33333 9.33333 1.33333ZM9.33333 14.6667C4.17333 14.6667 0 17.0533 0 20V22.6667H14.6667V20H2.66667C2.66667 19.2267 5 17.3333 9.33333 17.3333C11.7733 17.3333 13.56 17.9333 14.6667 18.6V15.6267C13.16 15.0267 11.3333 14.6667 9.33333 14.6667Z" fill="white"/>
</svg>
