<svg width="30" height="22" viewBox="0 0 30 22" fill="none" xmlns="http://www.w3.org/2000/svg">
<path d="M2.99992 21.6668C2.26659 21.6668 1.63903 21.4059 1.11725 20.8842C0.595474 20.3624 0.334141 19.7344 0.333252 19.0002V4.3335H2.99992V19.0002H25.6666V21.6668H2.99992ZM8.33325 16.3335C7.59992 16.3335 6.97236 16.0726 6.45059 15.5508C5.92881 15.0291 5.66747 14.4011 5.66659 13.6668V3.00016C5.66659 2.26683 5.92792 1.63927 6.45059 1.1175C6.97325 0.595718 7.60081 0.334385 8.33325 0.333496H26.9999C27.7333 0.333496 28.3613 0.594829 28.8839 1.1175C29.4066 1.64016 29.6675 2.26772 29.6666 3.00016V13.6668C29.6666 14.4002 29.4057 15.0282 28.8839 15.5508C28.3621 16.0735 27.7341 16.3344 26.9999 16.3335H8.33325ZM10.9999 13.6668C10.9999 12.9335 10.739 12.3059 10.2173 11.7842C9.69547 11.2624 9.06747 11.0011 8.33325 11.0002V13.6668H10.9999ZM24.3333 13.6668H26.9999V11.0002C26.2666 11.0002 25.639 11.2615 25.1173 11.7842C24.5955 12.3068 24.3341 12.9344 24.3333 13.6668ZM17.6666 12.3335C18.7777 12.3335 19.7221 11.9446 20.4999 11.1668C21.2777 10.3891 21.6666 9.44461 21.6666 8.3335C21.6666 7.22239 21.2777 6.27794 20.4999 5.50016C19.7221 4.72238 18.7777 4.3335 17.6666 4.3335C16.5555 4.3335 15.611 4.72238 14.8333 5.50016C14.0555 6.27794 13.6666 7.22239 13.6666 8.3335C13.6666 9.44461 14.0555 10.3891 14.8333 11.1668C15.611 11.9446 16.5555 12.3335 17.6666 12.3335ZM8.33325 5.66683C9.06659 5.66683 9.69459 5.40594 10.2173 4.88416C10.7399 4.36239 11.0008 3.73439 10.9999 3.00016H8.33325V5.66683ZM26.9999 5.66683V3.00016H24.3333C24.3333 3.7335 24.5946 4.3615 25.1173 4.88416C25.6399 5.40683 26.2675 5.66772 26.9999 5.66683Z" fill="white"/>
</svg>
