<svg width="30" height="25" viewBox="0 0 30 25" fill="none" xmlns="http://www.w3.org/2000/svg">
<path d="M23.8894 11.6667C26.4001 11.2947 28.3334 9.06133 28.3334 6.36C28.3334 3.4 26.0121 1 23.1481 1H6.85341C3.98675 1 1.66675 3.4 1.66675 6.36C1.66675 9.06133 3.59875 11.2947 6.11075 11.6667" stroke="white" stroke-width="2"/>
<path d="M15.0002 5V14.3333M15.0002 14.3333L17.6668 11.2227M15.0002 14.3333L12.3335 11.2227" stroke="white" stroke-width="2" stroke-linecap="round" stroke-linejoin="round"/>
<path d="M5.66675 10.3333C5.66675 7.81867 5.66675 6.56267 6.44808 5.78133C7.22941 5 8.48541 5 11.0001 5H19.0001C21.5147 5 22.7707 5 23.5521 5.78133C24.3334 6.56267 24.3334 7.81867 24.3334 10.3333V18.3333C24.3334 20.848 24.3334 22.104 23.5521 22.8853C22.7707 23.6667 21.5147 23.6667 19.0001 23.6667H11.0001C8.48541 23.6667 7.22941 23.6667 6.44808 22.8853C5.66675 22.104 5.66675 20.848 5.66675 18.3333V10.3333Z" stroke="white" stroke-width="2"/>
<path d="M5.66675 19.6665H24.3334" stroke="white" stroke-width="2" stroke-linecap="round" stroke-linejoin="round"/>
</svg>
