<svg width="25" height="25" viewBox="0 0 25 25" fill="none" xmlns="http://www.w3.org/2000/svg">
<path fill-rule="evenodd" clip-rule="evenodd" d="M18.5646 1.05145C18.3175 0.656637 17.9535 0.348682 17.5232 0.170454C17.0929 -0.00777288 16.6177 -0.0474045 16.1638 0.0570775L12.9424 0.797036C12.6122 0.872916 12.2692 0.872916 11.9391 0.797036L8.71764 0.0570775C8.26374 -0.0474045 7.78857 -0.00777288 7.35825 0.170454C6.92794 0.348682 6.5639 0.656637 6.3168 1.05145L4.56097 3.85362C4.3818 4.14029 4.13993 4.38216 3.85326 4.56312L1.05109 6.31895C0.656959 6.56583 0.349455 6.92928 0.171266 7.35886C-0.00692308 7.78844 -0.0469582 8.26284 0.0567176 8.7162L0.796676 11.9412C0.872282 12.2708 0.872282 12.6132 0.796676 12.9427L0.0567176 16.166C-0.0473611 16.6196 -0.00752749 17.0944 0.170681 17.5243C0.348889 17.9543 0.656618 18.318 1.05109 18.565L3.85326 20.3208C4.13993 20.5 4.3818 20.7419 4.56276 21.0285L6.3186 23.8307C6.82385 24.6387 7.78776 25.0383 8.71764 24.8251L11.9391 24.0851C12.2692 24.0092 12.6122 24.0092 12.9424 24.0851L16.1656 24.8251C16.6192 24.9292 17.094 24.8893 17.524 24.7111C17.9539 24.5329 18.3177 24.2252 18.5646 23.8307L20.3205 21.0285C20.4996 20.7419 20.7415 20.5 21.0282 20.3208L23.8321 18.565C24.2266 18.3177 24.5342 17.9535 24.7121 17.5232C24.89 17.0929 24.9294 16.6179 24.8247 16.1642L24.0866 12.9427C24.0107 12.6126 24.0107 12.2696 24.0866 11.9394L24.8265 8.7162C24.9308 8.26276 24.8912 7.78811 24.7133 7.35818C24.5354 6.92825 24.2281 6.5644 23.8339 6.31716L21.03 4.56133C20.7437 4.38183 20.5018 4.13989 20.3223 3.85362L18.5646 1.05145ZM17.6634 8.44566C17.7743 8.24189 17.8017 8.00308 17.74 7.77947C17.6783 7.55586 17.5323 7.3649 17.3327 7.24676C17.1331 7.12861 16.8955 7.0925 16.6698 7.14602C16.4441 7.19954 16.2479 7.33851 16.1226 7.5337L11.4374 15.4636L8.60835 12.7546C8.52442 12.6684 8.42399 12.6001 8.31306 12.5535C8.20213 12.507 8.08297 12.4833 7.96268 12.4838C7.84238 12.4843 7.72343 12.5091 7.61291 12.5566C7.50239 12.6041 7.40256 12.6733 7.31939 12.7602C7.23622 12.8471 7.1714 12.9499 7.1288 13.0624C7.0862 13.1749 7.06669 13.2948 7.07145 13.415C7.0762 13.5352 7.10511 13.6532 7.15645 13.762C7.2078 13.8708 7.28053 13.9681 7.3703 14.0482L11.0146 17.5402C11.1121 17.6334 11.2294 17.7034 11.3578 17.745C11.4862 17.7865 11.6223 17.7986 11.756 17.7801C11.8897 17.7617 12.0175 17.7133 12.1299 17.6385C12.2422 17.5638 12.3362 17.4646 12.4049 17.3485L17.6634 8.44566Z" fill="#13DA4B"/>
</svg>
