<svg width="512" height="512" viewBox="0 0 512 512" fill="none" xmlns="http://www.w3.org/2000/svg">
<path d="M256 512C397.385 512 512 397.385 512 256C512 114.615 397.385 0 256 0C114.615 0 0 114.615 0 256C0 397.385 114.615 512 256 512Z" fill="#4C5CE9"/>
<path d="M190.587 371.483L322.221 503.117C431.243 474.044 512 374.713 512 256V248.732L408.631 153.438L190.587 371.483Z" fill="#4252DF"/>
<path d="M262.461 313.338C273.767 324.644 273.767 344.025 262.461 355.331L239.041 378.751C227.735 390.057 208.353 390.057 197.047 378.751L94.4858 275.382C83.1798 264.076 83.1798 244.694 94.4858 233.388L117.905 209.968C129.211 198.662 148.593 198.662 159.899 209.968L262.461 313.338Z" fill="white"/>
<path d="M352.101 134.864C363.407 123.558 382.789 123.558 394.095 134.864L417.514 158.284C428.82 169.59 428.82 188.972 417.514 200.278L239.849 377.136C228.543 388.442 209.161 388.442 197.855 377.136L174.436 353.716C163.13 342.41 163.13 323.028 174.436 311.722L352.101 134.864Z" fill="white"/>
</svg>
