<svg width="20" height="20" viewBox="0 0 20 20" fill="none" xmlns="http://www.w3.org/2000/svg">
<path d="M0.177002 15.6095V19.5809H4.14835L15.8612 7.86806L11.8898 3.89672L0.177002 15.6095ZM18.9323 4.79689C19.0305 4.69892 19.1084 4.58254 19.1616 4.45443C19.2147 4.32631 19.242 4.18898 19.242 4.05028C19.242 3.91158 19.2147 3.77424 19.1616 3.64613C19.1084 3.51801 19.0305 3.40164 18.9323 3.30366L16.4542 0.825544C16.3563 0.727369 16.2399 0.64948 16.1118 0.596337C15.9836 0.543193 15.8463 0.515839 15.7076 0.515839C15.5689 0.515839 15.4316 0.543193 15.3035 0.596337C15.1753 0.64948 15.059 0.727369 14.961 0.825544L13.023 2.76356L16.9943 6.73491L18.9323 4.79689Z" fill="#432DCE"/>
</svg>
