<svg width="28" height="28" viewBox="0 0 28 28" fill="none" xmlns="http://www.w3.org/2000/svg">
<path d="M9.19996 20.8306L14 16.0306L18.8 20.8306L20.6666 18.9639L15.8666 14.1639L20.6666 9.36391L18.8 7.49725L14 12.2972L9.19996 7.49725L7.33329 9.36391L12.1333 14.1639L7.33329 18.9639L9.19996 20.8306ZM14 27.4972C12.1555 27.4972 10.4222 27.147 8.79996 26.4466C7.17774 25.7461 5.76663 24.7964 4.56663 23.5972C3.36663 22.3981 2.41685 20.987 1.71729 19.3639C1.01774 17.7408 0.667517 16.0075 0.666628 14.1639C0.665739 12.3204 1.01596 10.587 1.71729 8.96392C2.41863 7.3408 3.36841 5.92969 4.56663 4.73058C5.76485 3.53147 7.17596 2.58169 8.79996 1.88125C10.424 1.1808 12.1573 0.830582 14 0.830582C15.8426 0.830582 17.576 1.1808 19.2 1.88125C20.824 2.58169 22.2351 3.53147 23.4333 4.73058C24.6315 5.92969 25.5817 7.3408 26.284 8.96392C26.9862 10.587 27.336 12.3204 27.3333 14.1639C27.3306 16.0075 26.9804 17.7408 26.2826 19.3639C25.5849 20.987 24.6351 22.3981 23.4333 23.5972C22.2315 24.7964 20.8204 25.7466 19.2 26.4479C17.5795 27.1492 15.8462 27.499 14 27.4972Z" fill="#FF0707"/>
</svg>
