<svg width="32" height="36" viewBox="0 0 32 36" fill="none" xmlns="http://www.w3.org/2000/svg">
<g clip-path="url(#clip0_11_38)">
<path d="M30.8228 14.8185L24.2228 7.39349L21.3948 10.575L26.0001 15.75H8.82275V20.25H26.0001L21.4001 25.425L24.2281 28.6065L30.8281 21.1815C31.5773 20.3368 31.9976 19.192 31.9966 17.9988C31.9956 16.8055 31.5733 15.6616 30.8228 14.8185Z" fill="#191919"/>
<path d="M13.3254 30.75C13.3254 30.9489 13.2552 31.1397 13.1301 31.2803C13.0051 31.421 12.8355 31.5 12.6587 31.5H4.67472C4.49791 31.5 4.32834 31.421 4.20332 31.2803C4.07829 31.1397 4.00806 30.9489 4.00806 30.75V5.29651C4.00806 5.0976 4.07829 4.90683 4.20332 4.76618C4.32834 4.62553 4.49791 4.54651 4.67472 4.54651H12.6587C12.8355 4.54651 13.0051 4.62553 13.1301 4.76618C13.2552 4.90683 13.3254 5.0976 13.3254 5.29651V12.5175H17.3254V5.29651C17.3236 3.90473 16.8314 2.57053 15.9566 1.58639C15.0818 0.602253 13.8959 0.0484928 12.6587 0.0465088H4.67472C3.43759 0.0484928 2.25163 0.602253 1.37684 1.58639C0.502052 2.57053 0.0098202 3.90473 0.00805664 5.29651V30.75C0.00805664 32.1424 0.499722 33.4778 1.37489 34.4623C2.25006 35.4469 3.43705 36 4.67472 36H12.6587C13.8964 36 15.0834 35.4469 15.9586 34.4623C16.8337 33.4778 17.3254 32.1424 17.3254 30.75V23.5245H13.3254V30.75Z" fill="#191919"/>
</g>
<defs>
<clipPath id="clip0_11_38">
<rect width="32" height="36" fill="white"/>
</clipPath>
</defs>
</svg>
